<svg id="visual" viewBox="0 0 960 100" width="960" height="100" xmlns="http://www.w3.org/2000/svg" version="1.1"><path d="M0 42L60 42L120 37L180 47L240 36L300 37L360 41L420 38L480 42L540 34L600 46L660 36L720 48L780 49L840 37L900 48L960 43L960 0L900 0L840 0L780 0L720 0L660 0L600 0L540 0L480 0L420 0L360 0L300 0L240 0L180 0L120 0L60 0L0 0Z" fill="#dcecc4"></path><path d="M0 32L60 26L120 31L180 35L240 28L300 35L360 40L420 34L480 29L540 32L600 38L660 28L720 37L780 36L840 32L900 35L960 35L960 0L900 0L840 0L780 0L720 0L660 0L600 0L540 0L480 0L420 0L360 0L300 0L240 0L180 0L120 0L60 0L0 0Z" fill="#c3dfa0"></path><path d="M0 24L60 29L120 31L180 22L240 24L300 30L360 24L420 22L480 31L540 26L600 22L660 24L720 26L780 20L840 27L900 25L960 26L960 0L900 0L840 0L780 0L720 0L660 0L600 0L540 0L480 0L420 0L360 0L300 0L240 0L180 0L120 0L60 0L0 0Z" fill="#a5cd77"></path><path d="M0 20L60 16L120 18L180 18L240 15L300 20L360 18L420 17L480 14L540 21L600 18L660 20L720 19L780 23L840 23L900 20L960 21L960 0L900 0L840 0L780 0L720 0L660 0L600 0L540 0L480 0L420 0L360 0L300 0L240 0L180 0L120 0L60 0L0 0Z" fill="#88b957"></path><path d="M0 11L60 9L120 13L180 7L240 12L300 8L360 11L420 13L480 12L540 12L600 13L660 8L720 12L780 8L840 12L900 8L960 12L960 0L900 0L840 0L780 0L720 0L660 0L600 0L540 0L480 0L420 0L360 0L300 0L240 0L180 0L120 0L60 0L0 0Z" fill="#6ba03f"></path></svg>
