<svg id="visual" viewBox="0 0 960 540" width="960" height="540" xmlns="http://www.w3.org/2000/svg" version="1.1"><path d="M0 365L137 342L274 319L411 370L549 347L686 331L823 355L960 359L960 541L823 541L686 541L549 541L411 541L274 541L137 541L0 541Z" fill="#dcecc4"></path><path d="M0 408L137 379L274 422L411 405L549 429L686 417L823 396L960 374L960 541L823 541L686 541L549 541L411 541L274 541L137 541L0 541Z" fill="#c3dfa0"></path><path d="M0 421L137 407L274 412L411 425L549 427L686 413L823 452L960 443L960 541L823 541L686 541L549 541L411 541L274 541L137 541L0 541Z" fill="#a5cd77"></path><path d="M0 435L137 446L274 467L411 436L549 476L686 481L823 449L960 465L960 541L823 541L686 541L549 541L411 541L274 541L137 541L0 541Z" fill="#88b957"></path><path d="M0 475L137 487L274 483L411 490L549 502L686 481L823 479L960 487L960 541L823 541L686 541L549 541L411 541L274 541L137 541L0 541Z" fill="#6ba03f"></path></svg>
